 <svg version="1.0" xmlns="http://www.w3.org/2000/svg" width="700.000000pt" height="701.000000pt" viewBox="0 0 700.000000 701.000000" preserveAspectRatio="xMidYMid meet">
<metadata>
Created by potrace 1.12, written by Peter Selinger 2001-2015
</metadata>
<g transform="translate(0.000000,701.000000) scale(0.100000,-0.100000)" fill="#000000" stroke="none">
<path d="M2891 6692 c-24 -45 57 -143 166 -200 78 -40 220 -79 248 -68 30 11
1 36 -75 61 -98 33 -156 71 -239 157 -69 71 -84 79 -100 50z"></path>
<path d="M2245 6589 c-11 -16 14 -64 43 -86 76 -56 180 -90 286 -95 94 -4 98
15 7 37 -84 20 -169 59 -250 114 -63 43 -76 48 -86 30z"></path>
<path d="M3677 6593 c-16 -15 -5 -72 21 -114 16 -24 50 -63 77 -87 48 -42 165
-106 218 -118 47 -11 32 21 -28 61 -80 54 -146 116 -207 195 -50 66 -66 79
-81 63z"></path>
<path d="M4043 6413 c-17 -45 138 -233 230 -277 68 -33 122 -38 122 -12 0 13
-16 28 -45 44 -80 43 -89 51 -161 142 -60 77 -109 120 -134 120 -3 0 -8 -7
-12 -17z"></path>
<path d="M1493 6354 c-15 -39 60 -127 144 -170 44 -22 75 -30 129 -32 63 -4
73 -1 99 20 19 17 26 30 22 42 -5 13 -11 15 -26 6 -62 -33 -169 4 -269 94 -65
58 -88 67 -99 40z"></path>
<path d="M4897 6214 c-72 -17 -113 -38 -154 -77 -36 -34 -41 -57 -17 -81 25
-25 46 -19 133 38 45 30 94 57 111 61 16 3 34 13 41 22 11 13 10 18 -10 34
-27 22 -27 22 -104 3z"></path>
<path d="M4655 6130 c28 -12 47 -12 40 0 -3 6 -18 10 -33 9 -24 0 -25 -1 -7
-9z"></path>
<path d="M1194 6035 c-10 -24 29 -78 77 -108 60 -37 269 -90 327 -83 50 7 89
30 98 58 8 26 -13 40 -40 26 -29 -16 -150 -3 -231 25 -78 27 -170 71 -180 87
-9 15 -45 12 -51 -5z"></path>
<path d="M4982 5998 c-58 -10 -107 -39 -107 -63 0 -11 12 -26 28 -35 26 -14
30 -13 95 22 102 56 94 96 -16 76z"></path>
<path d="M1965 5435 c-184 -97 -337 -163 -441 -190 -71 -18 -84 -29 -62 -51
15 -15 15 -20 2 -48 -14 -30 -54 -277 -75 -456 -21 -179 19 -566 86 -833 14
-54 25 -100 25 -102 0 -2 -13 0 -28 6 -17 6 -38 26 -51 49 -25 44 -61 178 -61
224 1 28 2 29 14 14 7 -10 16 -15 19 -11 13 13 7 61 -11 83 -16 19 -22 21 -40
11 -75 -40 -32 -329 62 -407 25 -22 38 -25 72 -21 l42 4 38 -106 c49 -133 188
-412 279 -556 160 -256 267 -397 400 -532 165 -167 195 -183 343 -183 119 0
162 9 290 61 109 44 108 45 99 -64 -5 -70 -24 -131 -83 -267 -17 -39 -28 -83
-29 -111 l0 -46 -41 5 c-55 6 -202 -32 -455 -117 -387 -130 -464 -168 -597
-295 -62 -58 -221 -271 -249 -333 -31 -66 -29 -136 2 -141 17 -2 25 8 43 50
28 67 195 265 301 355 97 83 147 111 301 172 120 48 662 241 675 241 3 0 4 -4
1 -9 -3 -5 1 -14 9 -21 15 -13 16 -11 27 27 2 8 34 -12 78 -47 78 -62 231
-137 339 -166 36 -10 129 -17 266 -21 173 -5 226 -3 299 11 193 37 301 87 407
189 82 79 109 139 126 288 l5 46 121 6 c67 3 187 13 267 22 80 9 215 17 300
18 177 2 223 -8 329 -70 90 -53 254 -218 340 -341 78 -111 125 -148 156 -122
23 19 19 34 -41 142 -196 355 -362 494 -626 528 -123 15 -419 -14 -745 -74
-104 -19 -126 -20 -130 -9 -3 8 -26 25 -52 37 -25 13 -56 35 -67 48 -52 56
-155 316 -170 428 -8 62 -24 85 -51 76 -33 -10 -48 -62 -47 -156 1 -192 138
-447 258 -482 52 -15 50 -12 33 -40 -8 -12 -22 -56 -31 -96 -20 -93 -58 -148
-142 -208 -70 -50 -158 -84 -286 -110 -65 -13 -121 -16 -287 -12 l-206 5 -120
47 c-66 26 -149 64 -185 85 -36 21 -73 41 -83 44 -17 6 -16 10 7 49 31 56 100
218 120 287 22 74 20 138 -4 183 l-20 37 69 36 c78 41 151 99 151 121 0 20
-14 18 -73 -15 -75 -43 -297 -128 -406 -157 -109 -28 -223 -32 -278 -9 -50 21
-163 108 -243 186 -66 64 -291 393 -412 599 -224 384 -337 735 -388 1205 -8
81 -7 115 5 178 32 169 69 513 59 554 -6 21 -3 23 31 23 97 0 503 195 605 290
29 27 33 61 6 60 -6 -1 -92 -43 -191 -95z"></path>
<path d="M3083 5495 c-21 -57 38 -216 113 -304 43 -50 98 -78 119 -61 10 8 2
22 -39 63 -43 44 -58 70 -95 164 -57 146 -81 180 -98 138z"></path>
<path d="M2743 5422 c-105 -92 -177 -146 -313 -235 -141 -91 -221 -134 -266
-143 -21 -4 -34 -12 -34 -21 0 -31 101 -11 203 40 222 111 422 256 491 356 27
38 30 71 7 71 -6 0 -45 -31 -88 -68z"></path>
<path d="M4891 5441 c-17 -32 -13 -62 19 -129 35 -74 168 -217 212 -227 74
-18 77 31 7 118 -27 35 -81 106 -118 158 -71 98 -100 118 -120 80z"></path>
<path d="M2401 5405 c-69 -56 -270 -174 -439 -260 -101 -50 -132 -71 -130 -83
6 -27 62 -18 186 32 222 90 395 196 449 277 26 40 28 72 3 76 -8 1 -39 -18
-69 -42z"></path>
<path d="M1037 5393 c-4 -3 -7 -17 -7 -29 0 -28 39 -57 120 -90 67 -27 108
-30 134 -11 32 23 12 53 -47 73 -29 9 -74 28 -102 41 -50 23 -86 29 -98 16z"></path>
<path d="M3312 5298 c-46 -46 50 -196 206 -320 69 -54 102 -70 102 -49 0 5
-36 51 -79 102 -44 51 -99 127 -122 168 -63 112 -79 127 -107 99z"></path>
<path d="M4897 4953 c-34 -34 36 -168 143 -274 84 -83 130 -108 155 -83 21 21
20 27 -20 76 -19 24 -58 77 -87 118 -95 137 -161 193 -191 163z"></path>
<path d="M3803 4918 c-6 -7 -45 -92 -88 -188 -62 -139 -78 -185 -79 -225 -1
-49 0 -50 29 -50 34 0 34 -1 115 195 68 163 85 226 71 256 -12 26 -33 31 -48
12z"></path>
<path d="M3893 4668 c-40 -48 -73 -199 -73 -329 0 -71 3 -89 15 -89 14 0 21
17 50 145 9 38 30 105 47 148 25 62 29 84 22 105 -10 30 -44 41 -61 20z"></path>
<path d="M4845 4483 c-20 -20 -17 -39 32 -213 20 -69 38 -150 42 -180 5 -46 9
-55 26 -55 38 0 46 58 31 214 -15 147 -38 220 -74 240 -28 15 -38 14 -57 -6z"></path>
<path d="M3995 4334 c-12 -12 -15 -40 -15 -127 0 -203 35 -356 84 -365 16 -3
17 2 12 50 -3 29 -8 125 -11 213 -7 171 -16 230 -40 239 -8 3 -21 -2 -30 -10z"></path>
<path d="M2995 4329 c-44 -5 -120 -19 -169 -31 -94 -24 -120 -44 -97 -72 18
-22 84 -20 196 4 50 10 128 27 175 36 122 24 117 22 94 45 -25 24 -91 31 -199
18z"></path>
<path d="M1685 4180 c-18 -19 -18 -22 -2 -38 15 -14 43 -17 220 -17 171 0 202
3 202 15 0 35 -122 59 -301 60 -89 0 -103 -2 -119 -20z"></path>
<path d="M4194 4101 c-40 -25 -64 -59 -64 -91 1 -25 1 -25 18 -5 47 56 102 70
126 33 36 -55 44 -177 11 -164 -21 8 -72 -13 -80 -31 -3 -9 1 -23 8 -31 12
-11 19 -12 37 -2 47 25 36 -17 -24 -88 -41 -49 -42 -54 -21 -72 31 -25 123 60
165 152 55 121 -14 318 -111 318 -19 0 -48 -9 -65 -19z"></path>
<path d="M3012 4022 c-27 -27 -37 -92 -22 -139 17 -50 28 -63 56 -63 36 0 58
42 57 108 -2 87 -49 136 -91 94z"></path>
<path d="M4773 4028 c-12 -14 -118 -348 -129 -403 -3 -19 -1 -35 5 -39 33 -21
69 43 148 263 40 112 43 184 7 189 -11 2 -26 -3 -31 -10z"></path>
<path d="M2294 3908 c-14 -76 -19 -148 -19 -273 0 -157 2 -173 22 -212 27 -49
63 -77 120 -92 37 -10 49 -9 91 9 59 25 127 92 119 114 -9 22 -26 20 -89 -9
-87 -41 -143 -32 -175 28 -16 28 -18 62 -18 282 0 219 -2 250 -16 253 -13 2
-20 -18 -35 -100z"></path>
<path d="M1966 3908 c-18 -25 -21 -100 -6 -129 6 -10 23 -25 39 -33 24 -13 31
-13 47 -1 26 18 26 120 1 158 -22 33 -60 36 -81 5z"></path>
<path d="M4433 3583 c-8 -21 -34 -81 -58 -133 -68 -154 -115 -313 -115 -397 0
-36 3 -43 20 -43 25 0 33 17 58 116 11 45 52 148 90 230 39 82 73 165 77 186
10 51 -1 78 -31 78 -19 0 -29 -8 -41 -37z"></path>
<path d="M4083 3283 c-9 -23 14 -265 33 -356 17 -84 35 -114 70 -123 35 -9 48
13 28 44 -11 16 -19 68 -25 155 -13 169 -24 243 -44 273 -18 28 -53 32 -62 7z"></path>
<path d="M2644 3010 c-61 -15 -150 -33 -198 -39 -95 -11 -106 -15 -106 -37 0
-51 203 -44 390 13 70 21 82 30 78 62 -4 36 -29 36 -164 1z"></path>
</g>
</svg>